M48
; DRILL file {KiCad 5.1.4-e60b266~84~ubuntu18.04.1} date Tue 27 Aug 2019 12:37:15 PM MDT
; FORMAT={-:-/ absolute / inch / decimal}
; #@! TF.CreationDate,2019-08-27T12:37:15-06:00
; #@! TF.GenerationSoftware,Kicad,Pcbnew,5.1.4-e60b266~84~ubuntu18.04.1
FMAT,2
INCH
T1C0.0157
T2C0.0256
T3C0.0260
T4C0.0300
T5C0.0350
T6C0.0394
T7C0.0433
T8C0.0791
T9C0.0800
T10C0.0984
%
G90
G05
T1
X3.825Y-6.7
X3.925Y-4.35
X3.925Y-6.375
X4.0Y-3.65
X4.025Y-6.625
X4.1Y-3.65
X4.175Y-6.9
X4.225Y-4.625
X4.225Y-5.45
X4.25Y-3.625
X4.375Y-3.65
X4.375Y-5.625
X4.45Y-4.575
X4.45Y-4.75
X4.45Y-4.925
X4.475Y-5.925
X4.475Y-6.4
X4.525Y-6.525
X4.55Y-6.275
X4.575Y-6.15
X4.6036Y-6.075
X4.62Y-3.78
X4.62Y-3.88
X4.62Y-3.98
X4.625Y-5.625
X4.65Y-3.725
X4.65Y-3.825
X4.65Y-3.925
X4.65Y-4.025
X4.7Y-3.7
X4.72Y-4.28
X4.75Y-3.725
X4.75Y-4.2
X4.775Y-4.1
X4.8Y-3.7
X4.8Y-5.625
X4.825Y-5.8
X4.85Y-3.725
X4.875Y-4.05
X4.875Y-5.375
X4.9Y-3.7
X4.94Y-4.08
X4.95Y-3.725
X5.0Y-3.7
X5.0Y-4.05
X5.05Y-3.725
X5.1Y-3.7
X5.15Y-3.725
X5.15Y-3.825
X5.15Y-5.375
X5.15Y-5.55
X5.2Y-3.8
X5.25Y-3.825
X5.3Y-3.8
X5.3Y-4.05
X5.34Y-4.08
X5.35Y-3.725
X5.35Y-3.825
X5.4Y-3.68
X5.4Y-4.05
X5.425Y-6.075
X5.425Y-6.275
X5.45Y-3.65
X5.45Y-5.875
X5.45Y-5.975
X5.46Y-4.08
X5.5Y-4.05
X5.575Y-3.95
X5.575Y-4.05
X5.575Y-5.625
X5.575Y-6.9
X5.6Y-3.88
X5.6Y-4.0
X5.675Y-4.5
T2
X5.675Y-5.3
X5.675Y-5.35
T3
X4.05Y-6.375
X4.3Y-6.65
T4
X3.85Y-4.2
X3.85Y-4.3
X3.85Y-4.4
X3.85Y-4.5
X3.85Y-4.6
T5
X5.45Y-3.775
X5.55Y-3.775
T6
X5.7Y-6.475
X3.9Y-6.475
X3.9Y-6.575
X3.9Y-6.675
X3.85Y-6.825
X3.95Y-6.825
T7
X3.9478Y-4.775
X3.9478Y-5.0309
X4.125Y-4.775
X4.125Y-5.0309
X3.9478Y-5.3441
X3.9478Y-5.6
X4.125Y-5.3441
X4.125Y-5.6
T8
X5.25Y-3.575
X5.65Y-3.575
T9
X4.425Y-4.125
X4.425Y-7.025
X5.175Y-4.125
X5.175Y-7.025
T10
X3.9Y-7.025
X5.75Y-7.025
X5.75Y-4.0
X3.9Y-4.0
T0
M30
