G04 #@! TF.GenerationSoftware,KiCad,Pcbnew,5.1.4-e60b266~84~ubuntu18.04.1*
G04 #@! TF.CreationDate,2019-08-27T12:37:19-06:00*
G04 #@! TF.ProjectId,APRS_MicroNode,41505253-5f4d-4696-9372-6f4e6f64652e,rev?*
G04 #@! TF.SameCoordinates,Original*
G04 #@! TF.FileFunction,Soldermask,Bot*
G04 #@! TF.FilePolarity,Negative*
%FSLAX46Y46*%
G04 Gerber Fmt 4.6, Leading zero omitted, Abs format (unit mm)*
G04 Created by KiCad (PCBNEW 5.1.4-e60b266~84~ubuntu18.04.1) date 2019-08-27 12:37:19*
%MOMM*%
%LPD*%
G04 APERTURE LIST*
%ADD10C,0.100000*%
G04 APERTURE END LIST*
D10*
G36*
X99804098Y-175982033D02*
G01*
X100268350Y-176174332D01*
X100268352Y-176174333D01*
X100686168Y-176453509D01*
X101041491Y-176808832D01*
X101320667Y-177226648D01*
X101320668Y-177226650D01*
X101512967Y-177690902D01*
X101611000Y-178183747D01*
X101611000Y-178686253D01*
X101512967Y-179179098D01*
X101320668Y-179643350D01*
X101320667Y-179643352D01*
X101041491Y-180061168D01*
X100686168Y-180416491D01*
X100268352Y-180695667D01*
X100268351Y-180695668D01*
X100268350Y-180695668D01*
X99804098Y-180887967D01*
X99311253Y-180986000D01*
X98808747Y-180986000D01*
X98315902Y-180887967D01*
X97851650Y-180695668D01*
X97851649Y-180695668D01*
X97851648Y-180695667D01*
X97433832Y-180416491D01*
X97078509Y-180061168D01*
X96799333Y-179643352D01*
X96799332Y-179643350D01*
X96607033Y-179179098D01*
X96509000Y-178686253D01*
X96509000Y-178183747D01*
X96607033Y-177690902D01*
X96799332Y-177226650D01*
X96799333Y-177226648D01*
X97078509Y-176808832D01*
X97433832Y-176453509D01*
X97851648Y-176174333D01*
X97851650Y-176174332D01*
X98315902Y-175982033D01*
X98808747Y-175884000D01*
X99311253Y-175884000D01*
X99804098Y-175982033D01*
X99804098Y-175982033D01*
G37*
G36*
X146794098Y-175982033D02*
G01*
X147258350Y-176174332D01*
X147258352Y-176174333D01*
X147676168Y-176453509D01*
X148031491Y-176808832D01*
X148310667Y-177226648D01*
X148310668Y-177226650D01*
X148502967Y-177690902D01*
X148601000Y-178183747D01*
X148601000Y-178686253D01*
X148502967Y-179179098D01*
X148310668Y-179643350D01*
X148310667Y-179643352D01*
X148031491Y-180061168D01*
X147676168Y-180416491D01*
X147258352Y-180695667D01*
X147258351Y-180695668D01*
X147258350Y-180695668D01*
X146794098Y-180887967D01*
X146301253Y-180986000D01*
X145798747Y-180986000D01*
X145305902Y-180887967D01*
X144841650Y-180695668D01*
X144841649Y-180695668D01*
X144841648Y-180695667D01*
X144423832Y-180416491D01*
X144068509Y-180061168D01*
X143789333Y-179643352D01*
X143789332Y-179643350D01*
X143597033Y-179179098D01*
X143499000Y-178686253D01*
X143499000Y-178183747D01*
X143597033Y-177690902D01*
X143789332Y-177226650D01*
X143789333Y-177226648D01*
X144068509Y-176808832D01*
X144423832Y-176453509D01*
X144841648Y-176174333D01*
X144841650Y-176174332D01*
X145305902Y-175982033D01*
X145798747Y-175884000D01*
X146301253Y-175884000D01*
X146794098Y-175982033D01*
X146794098Y-175982033D01*
G37*
G36*
X112926177Y-176157873D02*
G01*
X113076678Y-176187809D01*
X113501985Y-176363977D01*
X113884751Y-176619733D01*
X114210267Y-176945249D01*
X114466023Y-177328015D01*
X114616336Y-177690902D01*
X114642191Y-177753323D01*
X114732000Y-178204824D01*
X114732000Y-178665176D01*
X114672127Y-178966177D01*
X114642191Y-179116678D01*
X114466023Y-179541985D01*
X114210267Y-179924751D01*
X113884751Y-180250267D01*
X113501985Y-180506023D01*
X113076678Y-180682191D01*
X112926177Y-180712127D01*
X112625176Y-180772000D01*
X112164824Y-180772000D01*
X111863823Y-180712127D01*
X111713322Y-180682191D01*
X111288015Y-180506023D01*
X110905249Y-180250267D01*
X110579733Y-179924751D01*
X110323977Y-179541985D01*
X110147809Y-179116678D01*
X110117873Y-178966177D01*
X110058000Y-178665176D01*
X110058000Y-178204824D01*
X110147809Y-177753323D01*
X110173665Y-177690902D01*
X110323977Y-177328015D01*
X110579733Y-176945249D01*
X110905249Y-176619733D01*
X111288015Y-176363977D01*
X111713322Y-176187809D01*
X111863823Y-176157873D01*
X112164824Y-176098000D01*
X112625176Y-176098000D01*
X112926177Y-176157873D01*
X112926177Y-176157873D01*
G37*
G36*
X131976177Y-176157873D02*
G01*
X132126678Y-176187809D01*
X132551985Y-176363977D01*
X132934751Y-176619733D01*
X133260267Y-176945249D01*
X133516023Y-177328015D01*
X133666336Y-177690902D01*
X133692191Y-177753323D01*
X133782000Y-178204824D01*
X133782000Y-178665176D01*
X133722127Y-178966177D01*
X133692191Y-179116678D01*
X133516023Y-179541985D01*
X133260267Y-179924751D01*
X132934751Y-180250267D01*
X132551985Y-180506023D01*
X132126678Y-180682191D01*
X131976177Y-180712127D01*
X131675176Y-180772000D01*
X131214824Y-180772000D01*
X130913823Y-180712127D01*
X130763322Y-180682191D01*
X130338015Y-180506023D01*
X129955249Y-180250267D01*
X129629733Y-179924751D01*
X129373977Y-179541985D01*
X129197809Y-179116678D01*
X129167873Y-178966177D01*
X129108000Y-178665176D01*
X129108000Y-178204824D01*
X129197809Y-177753323D01*
X129223665Y-177690902D01*
X129373977Y-177328015D01*
X129629733Y-176945249D01*
X129955249Y-176619733D01*
X130338015Y-176363977D01*
X130763322Y-176187809D01*
X130913823Y-176157873D01*
X131214824Y-176098000D01*
X131675176Y-176098000D01*
X131976177Y-176157873D01*
X131976177Y-176157873D01*
G37*
G36*
X100440442Y-172460518D02*
G01*
X100506627Y-172467037D01*
X100676466Y-172518557D01*
X100832991Y-172602222D01*
X100868729Y-172631552D01*
X100970186Y-172714814D01*
X101053448Y-172816271D01*
X101082778Y-172852009D01*
X101166443Y-173008534D01*
X101217963Y-173178373D01*
X101235359Y-173355000D01*
X101217963Y-173531627D01*
X101166443Y-173701466D01*
X101082778Y-173857991D01*
X101053448Y-173893729D01*
X100970186Y-173995186D01*
X100868729Y-174078448D01*
X100832991Y-174107778D01*
X100676466Y-174191443D01*
X100506627Y-174242963D01*
X100440442Y-174249482D01*
X100374260Y-174256000D01*
X100285740Y-174256000D01*
X100219558Y-174249482D01*
X100153373Y-174242963D01*
X99983534Y-174191443D01*
X99827009Y-174107778D01*
X99791271Y-174078448D01*
X99689814Y-173995186D01*
X99606552Y-173893729D01*
X99577222Y-173857991D01*
X99493557Y-173701466D01*
X99442037Y-173531627D01*
X99424641Y-173355000D01*
X99442037Y-173178373D01*
X99493557Y-173008534D01*
X99577222Y-172852009D01*
X99606552Y-172816271D01*
X99689814Y-172714814D01*
X99791271Y-172631552D01*
X99827009Y-172602222D01*
X99983534Y-172518557D01*
X100153373Y-172467037D01*
X100219558Y-172460518D01*
X100285740Y-172454000D01*
X100374260Y-172454000D01*
X100440442Y-172460518D01*
X100440442Y-172460518D01*
G37*
G36*
X98691000Y-174256000D02*
G01*
X96889000Y-174256000D01*
X96889000Y-172454000D01*
X98691000Y-172454000D01*
X98691000Y-174256000D01*
X98691000Y-174256000D01*
G37*
G36*
X99170442Y-168650518D02*
G01*
X99236627Y-168657037D01*
X99406466Y-168708557D01*
X99562991Y-168792222D01*
X99598729Y-168821552D01*
X99700186Y-168904814D01*
X99783448Y-169006271D01*
X99812778Y-169042009D01*
X99896443Y-169198534D01*
X99947963Y-169368373D01*
X99965359Y-169545000D01*
X99947963Y-169721627D01*
X99896443Y-169891466D01*
X99812778Y-170047991D01*
X99783448Y-170083729D01*
X99700186Y-170185186D01*
X99598729Y-170268448D01*
X99562991Y-170297778D01*
X99406466Y-170381443D01*
X99236627Y-170432963D01*
X99170443Y-170439481D01*
X99104260Y-170446000D01*
X99015740Y-170446000D01*
X98949557Y-170439481D01*
X98883373Y-170432963D01*
X98713534Y-170381443D01*
X98557009Y-170297778D01*
X98521271Y-170268448D01*
X98419814Y-170185186D01*
X98336552Y-170083729D01*
X98307222Y-170047991D01*
X98223557Y-169891466D01*
X98172037Y-169721627D01*
X98154641Y-169545000D01*
X98172037Y-169368373D01*
X98223557Y-169198534D01*
X98307222Y-169042009D01*
X98336552Y-169006271D01*
X98419814Y-168904814D01*
X98521271Y-168821552D01*
X98557009Y-168792222D01*
X98713534Y-168708557D01*
X98883373Y-168657037D01*
X98949558Y-168650518D01*
X99015740Y-168644000D01*
X99104260Y-168644000D01*
X99170442Y-168650518D01*
X99170442Y-168650518D01*
G37*
G36*
X99170443Y-166110519D02*
G01*
X99236627Y-166117037D01*
X99406466Y-166168557D01*
X99562991Y-166252222D01*
X99598729Y-166281552D01*
X99700186Y-166364814D01*
X99783448Y-166466271D01*
X99812778Y-166502009D01*
X99896443Y-166658534D01*
X99947963Y-166828373D01*
X99965359Y-167005000D01*
X99947963Y-167181627D01*
X99896443Y-167351466D01*
X99812778Y-167507991D01*
X99783448Y-167543729D01*
X99700186Y-167645186D01*
X99598729Y-167728448D01*
X99562991Y-167757778D01*
X99406466Y-167841443D01*
X99236627Y-167892963D01*
X99170443Y-167899481D01*
X99104260Y-167906000D01*
X99015740Y-167906000D01*
X98949557Y-167899481D01*
X98883373Y-167892963D01*
X98713534Y-167841443D01*
X98557009Y-167757778D01*
X98521271Y-167728448D01*
X98419814Y-167645186D01*
X98336552Y-167543729D01*
X98307222Y-167507991D01*
X98223557Y-167351466D01*
X98172037Y-167181627D01*
X98154641Y-167005000D01*
X98172037Y-166828373D01*
X98223557Y-166658534D01*
X98307222Y-166502009D01*
X98336552Y-166466271D01*
X98419814Y-166364814D01*
X98521271Y-166281552D01*
X98557009Y-166252222D01*
X98713534Y-166168557D01*
X98883373Y-166117037D01*
X98949557Y-166110519D01*
X99015740Y-166104000D01*
X99104260Y-166104000D01*
X99170443Y-166110519D01*
X99170443Y-166110519D01*
G37*
G36*
X145681000Y-165366000D02*
G01*
X143879000Y-165366000D01*
X143879000Y-163564000D01*
X145681000Y-163564000D01*
X145681000Y-165366000D01*
X145681000Y-165366000D01*
G37*
G36*
X99961000Y-165366000D02*
G01*
X98159000Y-165366000D01*
X98159000Y-163564000D01*
X99961000Y-163564000D01*
X99961000Y-165366000D01*
X99961000Y-165366000D01*
G37*
G36*
X105081564Y-141229389D02*
G01*
X105272833Y-141308615D01*
X105272835Y-141308616D01*
X105444973Y-141423635D01*
X105591365Y-141570027D01*
X105706385Y-141742167D01*
X105785611Y-141933436D01*
X105826000Y-142136484D01*
X105826000Y-142343516D01*
X105785611Y-142546564D01*
X105706385Y-142737833D01*
X105706384Y-142737835D01*
X105591365Y-142909973D01*
X105444973Y-143056365D01*
X105272835Y-143171384D01*
X105272834Y-143171385D01*
X105272833Y-143171385D01*
X105081564Y-143250611D01*
X104878516Y-143291000D01*
X104671484Y-143291000D01*
X104468436Y-143250611D01*
X104277167Y-143171385D01*
X104277166Y-143171385D01*
X104277165Y-143171384D01*
X104105027Y-143056365D01*
X103958635Y-142909973D01*
X103843616Y-142737835D01*
X103843615Y-142737833D01*
X103764389Y-142546564D01*
X103724000Y-142343516D01*
X103724000Y-142136484D01*
X103764389Y-141933436D01*
X103843615Y-141742167D01*
X103958635Y-141570027D01*
X104105027Y-141423635D01*
X104277165Y-141308616D01*
X104277167Y-141308615D01*
X104468436Y-141229389D01*
X104671484Y-141189000D01*
X104878516Y-141189000D01*
X105081564Y-141229389D01*
X105081564Y-141229389D01*
G37*
G36*
X100581564Y-141229389D02*
G01*
X100772833Y-141308615D01*
X100772835Y-141308616D01*
X100944973Y-141423635D01*
X101091365Y-141570027D01*
X101206385Y-141742167D01*
X101285611Y-141933436D01*
X101326000Y-142136484D01*
X101326000Y-142343516D01*
X101285611Y-142546564D01*
X101206385Y-142737833D01*
X101206384Y-142737835D01*
X101091365Y-142909973D01*
X100944973Y-143056365D01*
X100772835Y-143171384D01*
X100772834Y-143171385D01*
X100772833Y-143171385D01*
X100581564Y-143250611D01*
X100378516Y-143291000D01*
X100171484Y-143291000D01*
X99968436Y-143250611D01*
X99777167Y-143171385D01*
X99777166Y-143171385D01*
X99777165Y-143171384D01*
X99605027Y-143056365D01*
X99458635Y-142909973D01*
X99343616Y-142737835D01*
X99343615Y-142737833D01*
X99264389Y-142546564D01*
X99224000Y-142343516D01*
X99224000Y-142136484D01*
X99264389Y-141933436D01*
X99343615Y-141742167D01*
X99458635Y-141570027D01*
X99605027Y-141423635D01*
X99777165Y-141308616D01*
X99777167Y-141308615D01*
X99968436Y-141229389D01*
X100171484Y-141189000D01*
X100378516Y-141189000D01*
X100581564Y-141229389D01*
X100581564Y-141229389D01*
G37*
G36*
X100581564Y-134729389D02*
G01*
X100772833Y-134808615D01*
X100772835Y-134808616D01*
X100944973Y-134923635D01*
X101091365Y-135070027D01*
X101203860Y-135238387D01*
X101206385Y-135242167D01*
X101285611Y-135433436D01*
X101326000Y-135636484D01*
X101326000Y-135843516D01*
X101285611Y-136046564D01*
X101206385Y-136237833D01*
X101206384Y-136237835D01*
X101091365Y-136409973D01*
X100944973Y-136556365D01*
X100772835Y-136671384D01*
X100772834Y-136671385D01*
X100772833Y-136671385D01*
X100581564Y-136750611D01*
X100378516Y-136791000D01*
X100171484Y-136791000D01*
X99968436Y-136750611D01*
X99777167Y-136671385D01*
X99777166Y-136671385D01*
X99777165Y-136671384D01*
X99605027Y-136556365D01*
X99458635Y-136409973D01*
X99343616Y-136237835D01*
X99343615Y-136237833D01*
X99264389Y-136046564D01*
X99224000Y-135843516D01*
X99224000Y-135636484D01*
X99264389Y-135433436D01*
X99343615Y-135242167D01*
X99346141Y-135238387D01*
X99458635Y-135070027D01*
X99605027Y-134923635D01*
X99777165Y-134808616D01*
X99777167Y-134808615D01*
X99968436Y-134729389D01*
X100171484Y-134689000D01*
X100378516Y-134689000D01*
X100581564Y-134729389D01*
X100581564Y-134729389D01*
G37*
G36*
X105081564Y-134729389D02*
G01*
X105272833Y-134808615D01*
X105272835Y-134808616D01*
X105444973Y-134923635D01*
X105591365Y-135070027D01*
X105703860Y-135238387D01*
X105706385Y-135242167D01*
X105785611Y-135433436D01*
X105826000Y-135636484D01*
X105826000Y-135843516D01*
X105785611Y-136046564D01*
X105706385Y-136237833D01*
X105706384Y-136237835D01*
X105591365Y-136409973D01*
X105444973Y-136556365D01*
X105272835Y-136671384D01*
X105272834Y-136671385D01*
X105272833Y-136671385D01*
X105081564Y-136750611D01*
X104878516Y-136791000D01*
X104671484Y-136791000D01*
X104468436Y-136750611D01*
X104277167Y-136671385D01*
X104277166Y-136671385D01*
X104277165Y-136671384D01*
X104105027Y-136556365D01*
X103958635Y-136409973D01*
X103843616Y-136237835D01*
X103843615Y-136237833D01*
X103764389Y-136046564D01*
X103724000Y-135843516D01*
X103724000Y-135636484D01*
X103764389Y-135433436D01*
X103843615Y-135242167D01*
X103846141Y-135238387D01*
X103958635Y-135070027D01*
X104105027Y-134923635D01*
X104277165Y-134808616D01*
X104277167Y-134808615D01*
X104468436Y-134729389D01*
X104671484Y-134689000D01*
X104878516Y-134689000D01*
X105081564Y-134729389D01*
X105081564Y-134729389D01*
G37*
G36*
X144253015Y-134076973D02*
G01*
X144356879Y-134108479D01*
X144384055Y-134123005D01*
X144452600Y-134159643D01*
X144536501Y-134228499D01*
X144605357Y-134312400D01*
X144641995Y-134380945D01*
X144656521Y-134408121D01*
X144688027Y-134511985D01*
X144698666Y-134620000D01*
X144688027Y-134728015D01*
X144656521Y-134831879D01*
X144656519Y-134831882D01*
X144605357Y-134927600D01*
X144536501Y-135011501D01*
X144452600Y-135080356D01*
X144408807Y-135103764D01*
X144388437Y-135117375D01*
X144371110Y-135134702D01*
X144357496Y-135155076D01*
X144348119Y-135177715D01*
X144343338Y-135201748D01*
X144343338Y-135226252D01*
X144348118Y-135250286D01*
X144357495Y-135272924D01*
X144371109Y-135293299D01*
X144388436Y-135310626D01*
X144408810Y-135324240D01*
X144431449Y-135333617D01*
X144455482Y-135338398D01*
X144467735Y-135339000D01*
X144696000Y-135339000D01*
X144696000Y-136441000D01*
X143594000Y-136441000D01*
X143594000Y-135339000D01*
X143822265Y-135339000D01*
X143846651Y-135336598D01*
X143870100Y-135329485D01*
X143891711Y-135317934D01*
X143910653Y-135302389D01*
X143926198Y-135283447D01*
X143937749Y-135261836D01*
X143944862Y-135238387D01*
X143947264Y-135214001D01*
X143944862Y-135189615D01*
X143937749Y-135166166D01*
X143926198Y-135144555D01*
X143910653Y-135125613D01*
X143891711Y-135110068D01*
X143881198Y-135103767D01*
X143837400Y-135080356D01*
X143753499Y-135011501D01*
X143684643Y-134927600D01*
X143633481Y-134831882D01*
X143633479Y-134831879D01*
X143601973Y-134728015D01*
X143591334Y-134620000D01*
X143601973Y-134511985D01*
X143633479Y-134408121D01*
X143648005Y-134380945D01*
X143684643Y-134312400D01*
X143753499Y-134228499D01*
X143837400Y-134159643D01*
X143905945Y-134123005D01*
X143933121Y-134108479D01*
X144036985Y-134076973D01*
X144117933Y-134069000D01*
X144172067Y-134069000D01*
X144253015Y-134076973D01*
X144253015Y-134076973D01*
G37*
G36*
X105081564Y-126774389D02*
G01*
X105272833Y-126853615D01*
X105272835Y-126853616D01*
X105444973Y-126968635D01*
X105591365Y-127115027D01*
X105706385Y-127287167D01*
X105785611Y-127478436D01*
X105826000Y-127681484D01*
X105826000Y-127888516D01*
X105785611Y-128091564D01*
X105706385Y-128282833D01*
X105706384Y-128282835D01*
X105591365Y-128454973D01*
X105444973Y-128601365D01*
X105272835Y-128716384D01*
X105272834Y-128716385D01*
X105272833Y-128716385D01*
X105081564Y-128795611D01*
X104878516Y-128836000D01*
X104671484Y-128836000D01*
X104468436Y-128795611D01*
X104277167Y-128716385D01*
X104277166Y-128716385D01*
X104277165Y-128716384D01*
X104105027Y-128601365D01*
X103958635Y-128454973D01*
X103843616Y-128282835D01*
X103843615Y-128282833D01*
X103764389Y-128091564D01*
X103724000Y-127888516D01*
X103724000Y-127681484D01*
X103764389Y-127478436D01*
X103843615Y-127287167D01*
X103958635Y-127115027D01*
X104105027Y-126968635D01*
X104277165Y-126853616D01*
X104277167Y-126853615D01*
X104468436Y-126774389D01*
X104671484Y-126734000D01*
X104878516Y-126734000D01*
X105081564Y-126774389D01*
X105081564Y-126774389D01*
G37*
G36*
X100581564Y-126774389D02*
G01*
X100772833Y-126853615D01*
X100772835Y-126853616D01*
X100944973Y-126968635D01*
X101091365Y-127115027D01*
X101206385Y-127287167D01*
X101285611Y-127478436D01*
X101326000Y-127681484D01*
X101326000Y-127888516D01*
X101285611Y-128091564D01*
X101206385Y-128282833D01*
X101206384Y-128282835D01*
X101091365Y-128454973D01*
X100944973Y-128601365D01*
X100772835Y-128716384D01*
X100772834Y-128716385D01*
X100772833Y-128716385D01*
X100581564Y-128795611D01*
X100378516Y-128836000D01*
X100171484Y-128836000D01*
X99968436Y-128795611D01*
X99777167Y-128716385D01*
X99777166Y-128716385D01*
X99777165Y-128716384D01*
X99605027Y-128601365D01*
X99458635Y-128454973D01*
X99343616Y-128282835D01*
X99343615Y-128282833D01*
X99264389Y-128091564D01*
X99224000Y-127888516D01*
X99224000Y-127681484D01*
X99264389Y-127478436D01*
X99343615Y-127287167D01*
X99458635Y-127115027D01*
X99605027Y-126968635D01*
X99777165Y-126853616D01*
X99777167Y-126853615D01*
X99968436Y-126774389D01*
X100171484Y-126734000D01*
X100378516Y-126734000D01*
X100581564Y-126774389D01*
X100581564Y-126774389D01*
G37*
G36*
X100581564Y-120274389D02*
G01*
X100772833Y-120353615D01*
X100772835Y-120353616D01*
X100944973Y-120468635D01*
X101091365Y-120615027D01*
X101206385Y-120787167D01*
X101285611Y-120978436D01*
X101326000Y-121181484D01*
X101326000Y-121388516D01*
X101285611Y-121591564D01*
X101206385Y-121782833D01*
X101206384Y-121782835D01*
X101091365Y-121954973D01*
X100944973Y-122101365D01*
X100772835Y-122216384D01*
X100772834Y-122216385D01*
X100772833Y-122216385D01*
X100581564Y-122295611D01*
X100378516Y-122336000D01*
X100171484Y-122336000D01*
X99968436Y-122295611D01*
X99777167Y-122216385D01*
X99777166Y-122216385D01*
X99777165Y-122216384D01*
X99605027Y-122101365D01*
X99458635Y-121954973D01*
X99343616Y-121782835D01*
X99343615Y-121782833D01*
X99264389Y-121591564D01*
X99224000Y-121388516D01*
X99224000Y-121181484D01*
X99264389Y-120978436D01*
X99343615Y-120787167D01*
X99458635Y-120615027D01*
X99605027Y-120468635D01*
X99777165Y-120353616D01*
X99777167Y-120353615D01*
X99968436Y-120274389D01*
X100171484Y-120234000D01*
X100378516Y-120234000D01*
X100581564Y-120274389D01*
X100581564Y-120274389D01*
G37*
G36*
X105081564Y-120274389D02*
G01*
X105272833Y-120353615D01*
X105272835Y-120353616D01*
X105444973Y-120468635D01*
X105591365Y-120615027D01*
X105706385Y-120787167D01*
X105785611Y-120978436D01*
X105826000Y-121181484D01*
X105826000Y-121388516D01*
X105785611Y-121591564D01*
X105706385Y-121782833D01*
X105706384Y-121782835D01*
X105591365Y-121954973D01*
X105444973Y-122101365D01*
X105272835Y-122216384D01*
X105272834Y-122216385D01*
X105272833Y-122216385D01*
X105081564Y-122295611D01*
X104878516Y-122336000D01*
X104671484Y-122336000D01*
X104468436Y-122295611D01*
X104277167Y-122216385D01*
X104277166Y-122216385D01*
X104277165Y-122216384D01*
X104105027Y-122101365D01*
X103958635Y-121954973D01*
X103843616Y-121782835D01*
X103843615Y-121782833D01*
X103764389Y-121591564D01*
X103724000Y-121388516D01*
X103724000Y-121181484D01*
X103764389Y-120978436D01*
X103843615Y-120787167D01*
X103958635Y-120615027D01*
X104105027Y-120468635D01*
X104277165Y-120353616D01*
X104277167Y-120353615D01*
X104468436Y-120274389D01*
X104671484Y-120234000D01*
X104878516Y-120234000D01*
X105081564Y-120274389D01*
X105081564Y-120274389D01*
G37*
G36*
X98027142Y-116058242D02*
G01*
X98175101Y-116119529D01*
X98308255Y-116208499D01*
X98421501Y-116321745D01*
X98510471Y-116454899D01*
X98571758Y-116602858D01*
X98603000Y-116759925D01*
X98603000Y-116920075D01*
X98571758Y-117077142D01*
X98510471Y-117225101D01*
X98421501Y-117358255D01*
X98308255Y-117471501D01*
X98175101Y-117560471D01*
X98027142Y-117621758D01*
X97870075Y-117653000D01*
X97709925Y-117653000D01*
X97552858Y-117621758D01*
X97404899Y-117560471D01*
X97271745Y-117471501D01*
X97158499Y-117358255D01*
X97069529Y-117225101D01*
X97008242Y-117077142D01*
X96977000Y-116920075D01*
X96977000Y-116759925D01*
X97008242Y-116602858D01*
X97069529Y-116454899D01*
X97158499Y-116321745D01*
X97271745Y-116208499D01*
X97404899Y-116119529D01*
X97552858Y-116058242D01*
X97709925Y-116027000D01*
X97870075Y-116027000D01*
X98027142Y-116058242D01*
X98027142Y-116058242D01*
G37*
G36*
X98027142Y-113518242D02*
G01*
X98175101Y-113579529D01*
X98308255Y-113668499D01*
X98421501Y-113781745D01*
X98510471Y-113914899D01*
X98571758Y-114062858D01*
X98603000Y-114219925D01*
X98603000Y-114380075D01*
X98571758Y-114537142D01*
X98510471Y-114685101D01*
X98421501Y-114818255D01*
X98308255Y-114931501D01*
X98175101Y-115020471D01*
X98027142Y-115081758D01*
X97870075Y-115113000D01*
X97709925Y-115113000D01*
X97552858Y-115081758D01*
X97404899Y-115020471D01*
X97271745Y-114931501D01*
X97158499Y-114818255D01*
X97069529Y-114685101D01*
X97008242Y-114537142D01*
X96977000Y-114380075D01*
X96977000Y-114219925D01*
X97008242Y-114062858D01*
X97069529Y-113914899D01*
X97158499Y-113781745D01*
X97271745Y-113668499D01*
X97404899Y-113579529D01*
X97552858Y-113518242D01*
X97709925Y-113487000D01*
X97870075Y-113487000D01*
X98027142Y-113518242D01*
X98027142Y-113518242D01*
G37*
G36*
X98027142Y-110978242D02*
G01*
X98175101Y-111039529D01*
X98308255Y-111128499D01*
X98421501Y-111241745D01*
X98510471Y-111374899D01*
X98571758Y-111522858D01*
X98603000Y-111679925D01*
X98603000Y-111840075D01*
X98571758Y-111997142D01*
X98510471Y-112145101D01*
X98421501Y-112278255D01*
X98308255Y-112391501D01*
X98175101Y-112480471D01*
X98027142Y-112541758D01*
X97870075Y-112573000D01*
X97709925Y-112573000D01*
X97552858Y-112541758D01*
X97404899Y-112480471D01*
X97271745Y-112391501D01*
X97158499Y-112278255D01*
X97069529Y-112145101D01*
X97008242Y-111997142D01*
X96977000Y-111840075D01*
X96977000Y-111679925D01*
X97008242Y-111522858D01*
X97069529Y-111374899D01*
X97158499Y-111241745D01*
X97271745Y-111128499D01*
X97404899Y-111039529D01*
X97552858Y-110978242D01*
X97709925Y-110947000D01*
X97870075Y-110947000D01*
X98027142Y-110978242D01*
X98027142Y-110978242D01*
G37*
G36*
X98027142Y-108438242D02*
G01*
X98175101Y-108499529D01*
X98308255Y-108588499D01*
X98421501Y-108701745D01*
X98510471Y-108834899D01*
X98571758Y-108982858D01*
X98603000Y-109139925D01*
X98603000Y-109300075D01*
X98571758Y-109457142D01*
X98510471Y-109605101D01*
X98421501Y-109738255D01*
X98308255Y-109851501D01*
X98175101Y-109940471D01*
X98027142Y-110001758D01*
X97870075Y-110033000D01*
X97709925Y-110033000D01*
X97552858Y-110001758D01*
X97404899Y-109940471D01*
X97271745Y-109851501D01*
X97158499Y-109738255D01*
X97069529Y-109605101D01*
X97008242Y-109457142D01*
X96977000Y-109300075D01*
X96977000Y-109139925D01*
X97008242Y-108982858D01*
X97069529Y-108834899D01*
X97158499Y-108701745D01*
X97271745Y-108588499D01*
X97404899Y-108499529D01*
X97552858Y-108438242D01*
X97709925Y-108407000D01*
X97870075Y-108407000D01*
X98027142Y-108438242D01*
X98027142Y-108438242D01*
G37*
G36*
X98027142Y-105898242D02*
G01*
X98175101Y-105959529D01*
X98308255Y-106048499D01*
X98421501Y-106161745D01*
X98510471Y-106294899D01*
X98571758Y-106442858D01*
X98603000Y-106599925D01*
X98603000Y-106760075D01*
X98571758Y-106917142D01*
X98510471Y-107065101D01*
X98421501Y-107198255D01*
X98308255Y-107311501D01*
X98175101Y-107400471D01*
X98027142Y-107461758D01*
X97870075Y-107493000D01*
X97709925Y-107493000D01*
X97552858Y-107461758D01*
X97404899Y-107400471D01*
X97271745Y-107311501D01*
X97158499Y-107198255D01*
X97069529Y-107065101D01*
X97008242Y-106917142D01*
X96977000Y-106760075D01*
X96977000Y-106599925D01*
X97008242Y-106442858D01*
X97069529Y-106294899D01*
X97158499Y-106161745D01*
X97271745Y-106048499D01*
X97404899Y-105959529D01*
X97552858Y-105898242D01*
X97709925Y-105867000D01*
X97870075Y-105867000D01*
X98027142Y-105898242D01*
X98027142Y-105898242D01*
G37*
G36*
X112926177Y-102497873D02*
G01*
X113076678Y-102527809D01*
X113501985Y-102703977D01*
X113884751Y-102959733D01*
X114210267Y-103285249D01*
X114466023Y-103668015D01*
X114642191Y-104093322D01*
X114732000Y-104544826D01*
X114732000Y-105005174D01*
X114642191Y-105456678D01*
X114466023Y-105881985D01*
X114210267Y-106264751D01*
X113884751Y-106590267D01*
X113501985Y-106846023D01*
X113076678Y-107022191D01*
X112926177Y-107052127D01*
X112625176Y-107112000D01*
X112164824Y-107112000D01*
X111863823Y-107052127D01*
X111713322Y-107022191D01*
X111288015Y-106846023D01*
X110905249Y-106590267D01*
X110579733Y-106264751D01*
X110323977Y-105881985D01*
X110147809Y-105456678D01*
X110058000Y-105005174D01*
X110058000Y-104544826D01*
X110147809Y-104093322D01*
X110323977Y-103668015D01*
X110579733Y-103285249D01*
X110905249Y-102959733D01*
X111288015Y-102703977D01*
X111713322Y-102527809D01*
X111863823Y-102497873D01*
X112164824Y-102438000D01*
X112625176Y-102438000D01*
X112926177Y-102497873D01*
X112926177Y-102497873D01*
G37*
G36*
X131976177Y-102497873D02*
G01*
X132126678Y-102527809D01*
X132551985Y-102703977D01*
X132934751Y-102959733D01*
X133260267Y-103285249D01*
X133516023Y-103668015D01*
X133692191Y-104093322D01*
X133782000Y-104544826D01*
X133782000Y-105005174D01*
X133692191Y-105456678D01*
X133516023Y-105881985D01*
X133260267Y-106264751D01*
X132934751Y-106590267D01*
X132551985Y-106846023D01*
X132126678Y-107022191D01*
X131976177Y-107052127D01*
X131675176Y-107112000D01*
X131214824Y-107112000D01*
X130913823Y-107052127D01*
X130763322Y-107022191D01*
X130338015Y-106846023D01*
X129955249Y-106590267D01*
X129629733Y-106264751D01*
X129373977Y-105881985D01*
X129197809Y-105456678D01*
X129108000Y-105005174D01*
X129108000Y-104544826D01*
X129197809Y-104093322D01*
X129373977Y-103668015D01*
X129629733Y-103285249D01*
X129955249Y-102959733D01*
X130338015Y-102703977D01*
X130763322Y-102527809D01*
X130913823Y-102497873D01*
X131214824Y-102438000D01*
X131675176Y-102438000D01*
X131976177Y-102497873D01*
X131976177Y-102497873D01*
G37*
G36*
X146794098Y-99147033D02*
G01*
X147258350Y-99339332D01*
X147258352Y-99339333D01*
X147676168Y-99618509D01*
X148031491Y-99973832D01*
X148310667Y-100391648D01*
X148310668Y-100391650D01*
X148502967Y-100855902D01*
X148601000Y-101348747D01*
X148601000Y-101851253D01*
X148502967Y-102344098D01*
X148310668Y-102808350D01*
X148310667Y-102808352D01*
X148031491Y-103226168D01*
X147676168Y-103581491D01*
X147258352Y-103860667D01*
X147258351Y-103860668D01*
X147258350Y-103860668D01*
X146794098Y-104052967D01*
X146301253Y-104151000D01*
X145798747Y-104151000D01*
X145305902Y-104052967D01*
X144841650Y-103860668D01*
X144841649Y-103860668D01*
X144841648Y-103860667D01*
X144423832Y-103581491D01*
X144068509Y-103226168D01*
X143789333Y-102808352D01*
X143789332Y-102808350D01*
X143597033Y-102344098D01*
X143499000Y-101851253D01*
X143499000Y-101348747D01*
X143597033Y-100855902D01*
X143789332Y-100391650D01*
X143789333Y-100391648D01*
X144068509Y-99973832D01*
X144423832Y-99618509D01*
X144841648Y-99339333D01*
X144841650Y-99339332D01*
X145305902Y-99147033D01*
X145798747Y-99049000D01*
X146301253Y-99049000D01*
X146794098Y-99147033D01*
X146794098Y-99147033D01*
G37*
G36*
X99804098Y-99147033D02*
G01*
X100268350Y-99339332D01*
X100268352Y-99339333D01*
X100686168Y-99618509D01*
X101041491Y-99973832D01*
X101320667Y-100391648D01*
X101320668Y-100391650D01*
X101512967Y-100855902D01*
X101611000Y-101348747D01*
X101611000Y-101851253D01*
X101512967Y-102344098D01*
X101320668Y-102808350D01*
X101320667Y-102808352D01*
X101041491Y-103226168D01*
X100686168Y-103581491D01*
X100268352Y-103860667D01*
X100268351Y-103860668D01*
X100268350Y-103860668D01*
X99804098Y-104052967D01*
X99311253Y-104151000D01*
X98808747Y-104151000D01*
X98315902Y-104052967D01*
X97851650Y-103860668D01*
X97851649Y-103860668D01*
X97851648Y-103860667D01*
X97433832Y-103581491D01*
X97078509Y-103226168D01*
X96799333Y-102808352D01*
X96799332Y-102808350D01*
X96607033Y-102344098D01*
X96509000Y-101851253D01*
X96509000Y-101348747D01*
X96607033Y-100855902D01*
X96799332Y-100391650D01*
X96799333Y-100391648D01*
X97078509Y-99973832D01*
X97433832Y-99618509D01*
X97851648Y-99339333D01*
X97851650Y-99339332D01*
X98315902Y-99147033D01*
X98808747Y-99049000D01*
X99311253Y-99049000D01*
X99804098Y-99147033D01*
X99804098Y-99147033D01*
G37*
G36*
X138596823Y-94596313D02*
G01*
X138757242Y-94644976D01*
X138889906Y-94715886D01*
X138905078Y-94723996D01*
X139034659Y-94830341D01*
X139141004Y-94959922D01*
X139141005Y-94959924D01*
X139220024Y-95107758D01*
X139268687Y-95268177D01*
X139281000Y-95393197D01*
X139281000Y-96376804D01*
X139268687Y-96501823D01*
X139220024Y-96662242D01*
X139149114Y-96794906D01*
X139141004Y-96810078D01*
X139034659Y-96939659D01*
X138905077Y-97046005D01*
X138757241Y-97125024D01*
X138596822Y-97173687D01*
X138430000Y-97190117D01*
X138263177Y-97173687D01*
X138102758Y-97125024D01*
X137954924Y-97046005D01*
X137954922Y-97046004D01*
X137825341Y-96939659D01*
X137718995Y-96810077D01*
X137639976Y-96662241D01*
X137591313Y-96501822D01*
X137579000Y-96376803D01*
X137579000Y-95393197D01*
X137591314Y-95268177D01*
X137639977Y-95107758D01*
X137718996Y-94959924D01*
X137718997Y-94959922D01*
X137825342Y-94830341D01*
X137954923Y-94723996D01*
X137970095Y-94715886D01*
X138102759Y-94644976D01*
X138263178Y-94596313D01*
X138430000Y-94579883D01*
X138596823Y-94596313D01*
X138596823Y-94596313D01*
G37*
G36*
X141136823Y-94596313D02*
G01*
X141297242Y-94644976D01*
X141429906Y-94715886D01*
X141445078Y-94723996D01*
X141574659Y-94830341D01*
X141681004Y-94959922D01*
X141681005Y-94959924D01*
X141760024Y-95107758D01*
X141808687Y-95268177D01*
X141821000Y-95393197D01*
X141821000Y-96376804D01*
X141808687Y-96501823D01*
X141760024Y-96662242D01*
X141689114Y-96794906D01*
X141681004Y-96810078D01*
X141574659Y-96939659D01*
X141445077Y-97046005D01*
X141297241Y-97125024D01*
X141136822Y-97173687D01*
X140970000Y-97190117D01*
X140803177Y-97173687D01*
X140642758Y-97125024D01*
X140494924Y-97046005D01*
X140494922Y-97046004D01*
X140365341Y-96939659D01*
X140258995Y-96810077D01*
X140179976Y-96662241D01*
X140131313Y-96501822D01*
X140119000Y-96376803D01*
X140119000Y-95393197D01*
X140131314Y-95268177D01*
X140179977Y-95107758D01*
X140258996Y-94959924D01*
X140258997Y-94959922D01*
X140365342Y-94830341D01*
X140494923Y-94723996D01*
X140510095Y-94715886D01*
X140642759Y-94644976D01*
X140803178Y-94596313D01*
X140970000Y-94579883D01*
X141136823Y-94596313D01*
X141136823Y-94596313D01*
G37*
G36*
X143863058Y-87280059D02*
G01*
X144202548Y-87383042D01*
X144202550Y-87383043D01*
X144515422Y-87550277D01*
X144515424Y-87550278D01*
X144515423Y-87550278D01*
X144789661Y-87775339D01*
X145014722Y-88049577D01*
X145181958Y-88362452D01*
X145284941Y-88701942D01*
X145311000Y-88966525D01*
X145311000Y-92643475D01*
X145284941Y-92908058D01*
X145181958Y-93247547D01*
X145181957Y-93247550D01*
X145014723Y-93560422D01*
X144789661Y-93834661D01*
X144515423Y-94059723D01*
X144202549Y-94226957D01*
X144202547Y-94226958D01*
X143863057Y-94329941D01*
X143510000Y-94364714D01*
X143156942Y-94329941D01*
X142817452Y-94226958D01*
X142817450Y-94226957D01*
X142504578Y-94059723D01*
X142230339Y-93834661D01*
X142005277Y-93560423D01*
X141838043Y-93247549D01*
X141838042Y-93247547D01*
X141735059Y-92908057D01*
X141709000Y-92643474D01*
X141709001Y-88966525D01*
X141735060Y-88701942D01*
X141838043Y-88362452D01*
X142005279Y-88049577D01*
X142230340Y-87775339D01*
X142504578Y-87550278D01*
X142504577Y-87550278D01*
X142504579Y-87550277D01*
X142817451Y-87383043D01*
X142817453Y-87383042D01*
X143156943Y-87280059D01*
X143510000Y-87245286D01*
X143863058Y-87280059D01*
X143863058Y-87280059D01*
G37*
G36*
X133703058Y-87280059D02*
G01*
X134042548Y-87383042D01*
X134042550Y-87383043D01*
X134355422Y-87550277D01*
X134355424Y-87550278D01*
X134355423Y-87550278D01*
X134629661Y-87775339D01*
X134854722Y-88049577D01*
X135021958Y-88362452D01*
X135124941Y-88701942D01*
X135151000Y-88966525D01*
X135151000Y-92643475D01*
X135124941Y-92908058D01*
X135021958Y-93247547D01*
X135021957Y-93247550D01*
X134854723Y-93560422D01*
X134629661Y-93834661D01*
X134355423Y-94059723D01*
X134042549Y-94226957D01*
X134042547Y-94226958D01*
X133703057Y-94329941D01*
X133350000Y-94364714D01*
X132996942Y-94329941D01*
X132657452Y-94226958D01*
X132657450Y-94226957D01*
X132344578Y-94059723D01*
X132070339Y-93834661D01*
X131845277Y-93560423D01*
X131678043Y-93247549D01*
X131678042Y-93247547D01*
X131575059Y-92908057D01*
X131549000Y-92643474D01*
X131549001Y-88966525D01*
X131575060Y-88701942D01*
X131678043Y-88362452D01*
X131845279Y-88049577D01*
X132070340Y-87775339D01*
X132344578Y-87550278D01*
X132344577Y-87550278D01*
X132344579Y-87550277D01*
X132657451Y-87383043D01*
X132657453Y-87383042D01*
X132996943Y-87280059D01*
X133350000Y-87245286D01*
X133703058Y-87280059D01*
X133703058Y-87280059D01*
G37*
M02*
